<?xml version="1.0" standalone="no"?>
<!DOCTYPE svg PUBLIC "-//W3C//DTD SVG 20010904//EN"
 "http://www.w3.org/TR/2001/REC-SVG-20010904/DTD/svg10.dtd">
<svg version="1.0" xmlns="http://www.w3.org/2000/svg"
 width="223.000000pt" height="199.000000pt" viewBox="0 0 223.000000 199.000000"
 preserveAspectRatio="xMidYMid meet">

<g transform="translate(0.000000,199.000000) scale(0.100000,-0.100000)"
fill="#000000" stroke="none">
<path d="M0 995 l0 -995 1115 0 1115 0 0 995 0 995 -1115 0 -1115 0 0 -995z
m1204 748 c99 -70 108 -211 19 -295 -36 -34 -73 -48 -128 -48 -97 0 -170 61
-188 158 -16 82 47 187 125 211 53 17 128 5 172 -26z m22 -453 c29 -14 68 -53
127 -124 98 -117 178 -194 244 -233 66 -39 198 -81 275 -89 l68 -7 0 -93 0
-94 -59 0 c-74 0 -231 40 -314 79 -69 33 -180 111 -242 172 l-40 38 3 -97 3
-97 194 -78 c235 -96 265 -122 265 -229 0 -59 -27 -106 -79 -139 l-45 -29
-361 2 -360 3 1 48 c0 51 20 85 68 121 25 19 46 22 203 26 153 4 177 7 187 23
8 12 8 22 0 35 -10 15 -31 17 -200 17 -206 0 -219 -3 -278 -61 -41 -41 -57
-78 -64 -147 l-7 -62 -125 -2 c-114 -3 -128 -1 -164 20 -54 31 -78 67 -84 126
-11 122 16 147 262 247 l195 79 3 96 3 96 -65 -57 c-86 -75 -179 -137 -252
-166 -84 -35 -213 -64 -280 -64 l-58 0 0 93 0 93 83 11 c97 13 224 59 287 105
68 48 134 113 221 220 101 122 130 138 253 138 70 0 99 -5 132 -20z"/>
</g>
</svg>
